PathFileType  4	(X/Y/Z) C:\Users\antoi\Documents\MyRepositories\mobilecap\ResultsAnalysis
DataRate	CameraRate	NumFrames	NumMarkers	Units	OrigDataRate	OrigDataStartFrame	OrigNumFrames
100.0	100.0	4	51	mm	100.0	234	311
Frame#	Time	r_knee			r_shank_antsup			r_ankle			r_calc			r_5meta			r_toe			L_knee			L_shank_antsup			L_ankle			L_calc			L_5meta			L_toe			r_sh2			r_sh3			r_sh4			L_sh2			L_sh3			r_thigh1			r_thigh2			r_thigh3			r_thigh4			r_thigh5			L_thigh1			L_thigh2			L_thigh3			L_thigh4			r.ASIS			r.PSIS			L.ASIS			L.PSIS			C7			R_Shoulder			L_Shoulder			R_Sternum			L_Sternum			R_humerus			R_elbow_med			R_elbow_lat			R_forearm			R_wrist_radius			R_wrist_ulna			L_humerus			L_elbow_med			L_elbow_lat			L_forearm			L_wrist_radius			L_wrist_ulna			R_HJC			L_HJC			R_HJC_reg			L_HJC_reg			
		X1	Y1	Z1	X2	Y2	Z2	X3	Y3	Z3	X4	Y4	Z4	X5	Y5	Z5	X6	Y6	Z6	X7	Y7	Z7	X8	Y8	Z8	X9	Y9	Z9	X10	Y10	Z10	X11	Y11	Z11	X12	Y12	Z12	X13	Y13	Z13	X14	Y14	Z14	X15	Y15	Z15	X16	Y16	Z16	X17	Y17	Z17	X18	Y18	Z18	X19	Y19	Z19	X20	Y20	Z20	X21	Y21	Z21	X22	Y22	Z22	X23	Y23	Z23	X24	Y24	Z24	X25	Y25	Z25	X26	Y26	Z26	X27	Y27	Z27	X28	Y28	Z28	X29	Y29	Z29	X30	Y30	Z30	X31	Y31	Z31	X32	Y32	Z32	X33	Y33	Z33	X34	Y34	Z34	X35	Y35	Z35	X36	Y36	Z36	X37	Y37	Z37	X38	Y38	Z38	X39	Y39	Z39	X40	Y40	Z40	X41	Y41	Z41	X42	Y42	Z42	X43	Y43	Z43	X44	Y44	Z44	X45	Y45	Z45	X46	Y46	Z46	X47	Y47	Z47	X48	Y48	Z48	X49	Y49	Z49	X50	Y50	Z50	X51	Y51	Z51	

234	2.33000000	-116.02165	415.70099	-427.09110	-83.02398	342.20349	-431.13342	-300.20085	91.59119	-454.82276	-365.33577	67.67389	-501.22287	-208.20752	40.67098	-426.02908	-160.58511	53.38618	-478.05486	-82.25124	417.01151	-756.82637	-66.51368	319.54274	-749.66336	-278.21288	103.93387	-774.66845	-346.92426	68.32623	-731.08529	-194.41627	42.46300	-813.44404	-140.11692	52.98419	-762.78165	-148.15232	249.58471	-427.23203	-139.27148	383.52184	-400.08727	-213.99114	294.29887	-400.15257	-123.46165	375.32704	-790.36860	-190.18143	273.44062	-807.35173	-230.59419	629.93293	-379.85403	-158.78707	544.19983	-390.61862	-241.80411	478.68762	-435.09603	-316.81386	567.37800	-415.80010	-197.73716	487.25751	-403.03984	-216.60021	657.43536	-778.94863	-129.59310	550.53085	-767.94105	-307.47558	592.34086	-762.60365	-219.25073	484.11789	-737.88836	-235.77311	772.17086	-461.23556	-411.86728	869.70507	-548.88102	-217.79344	768.76970	-674.92042	-403.42922	864.92231	-630.72782	-120.37070	1213.86028	-551.11018	-61.37479	1189.83858	-429.97188	-41.15345	1194.76738	-657.23453	-11.27427	1125.92234	-517.48464	-9.74425	1122.87537	-552.28780	8.36563	1151.27461	-363.55853	127.09682	986.16676	-274.59481	128.73743	1047.63765	-235.05933	169.92166	1121.02401	-283.97129	241.69915	1199.28818	-366.51352	274.78997	1183.82492	-349.86083	33.40788	1168.10117	-721.99923	199.69724	1014.00975	-761.89558	195.91353	1076.28064	-799.16811	256.69757	1141.93338	-736.16673	315.79773	1202.44661	-650.05960	348.30443	1179.89961	-658.49382	-340.77013	717.88189	-472.24925	-321.60388	715.44188	-678.85505	-322.86538	737.80757	-497.45263	-308.37670	729.59142	-638.01748	
235	2.34000000	-122.48421	421.16272	-424.03715	-89.02888	347.92255	-426.98340	-300.12040	91.87803	-453.85277	-364.94497	68.83622	-500.75792	-208.11196	40.30901	-425.76587	-160.56681	53.45798	-477.53597	-88.21158	423.20111	-757.51995	-71.19653	326.26640	-751.56606	-277.84373	105.19116	-775.09981	-346.20282	70.26503	-731.28323	-194.20757	42.43847	-813.45505	-139.65804	52.79706	-762.90816	-152.24667	254.07620	-423.69019	-146.56745	388.12094	-396.84110	-219.21498	297.56756	-398.26421	-129.75631	380.66305	-791.55800	-194.26415	277.37857	-808.29669	-231.88317	639.65549	-378.30248	-163.12409	551.89711	-388.11863	-246.64408	488.18224	-433.29489	-319.17829	579.17589	-415.77319	-202.85609	495.80727	-400.74916	-214.01395	669.07307	-779.01290	-130.68015	559.28260	-768.93650	-306.77418	606.55549	-764.18151	-222.51842	495.22838	-739.51086	-233.08892	784.07396	-460.11230	-408.58058	882.66329	-548.50452	-213.56281	782.79210	-673.33863	-399.43699	878.53303	-630.44421	-122.83120	1229.93549	-551.73237	-61.37325	1211.40799	-434.17891	-41.54076	1216.88381	-652.86920	-10.28858	1149.03909	-514.62180	-9.76427	1142.08944	-551.57134	10.58660	1181.96022	-366.98239	139.96441	1033.23223	-266.25193	135.17174	1095.93352	-230.77018	166.01901	1171.58353	-283.22672	225.31232	1254.79124	-370.06297	259.78315	1243.75809	-353.94528	34.40179	1200.01739	-717.07741	212.35346	1063.61247	-764.34052	202.73277	1126.53602	-798.85974	252.75561	1197.33283	-732.93420	300.25250	1263.34605	-644.32538	335.66383	1245.58164	-652.31104	-338.23057	730.07751	-472.52521	-317.19269	729.45738	-678.96008	-320.00135	750.39829	-497.30436	-304.34652	743.32806	-637.57959	
236	2.35000000	-130.13939	427.70011	-420.57376	-96.23236	354.48725	-423.00048	-299.91213	92.48669	-452.63738	-364.55991	70.58042	-499.87045	-207.85340	40.04360	-425.47537	-160.44544	53.63531	-477.01956	-95.60961	430.73007	-758.39798	-77.17660	334.28621	-753.80031	-277.40207	106.71955	-775.62063	-345.32640	72.75242	-731.58688	-193.99188	42.41751	-813.40615	-139.10473	52.64729	-763.14718	-157.20225	259.41475	-420.36203	-154.85520	394.06726	-393.19605	-225.55563	301.51231	-396.23069	-137.36639	387.42043	-793.94490	-199.34046	282.10778	-809.40209	-233.21512	650.90118	-376.16094	-167.26405	560.73936	-385.67521	-252.24279	499.38177	-431.40308	-321.75310	592.88255	-415.32571	-208.66599	505.77748	-398.20817	-211.35416	682.14409	-779.09229	-132.22411	569.32256	-770.18006	-306.15439	622.72300	-766.08468	-226.43410	508.00733	-741.41616	-229.66452	797.84974	-458.42608	-404.60090	897.37659	-548.12975	-208.53168	798.87675	-672.11654	-394.78992	894.02035	-629.99105	-125.24159	1248.02990	-552.04034	-61.79421	1235.06642	-437.95447	-42.69112	1241.34544	-648.36779	-9.58979	1175.48773	-510.37800	-9.61333	1163.96712	-550.48537	11.16225	1213.49020	-370.06880	147.71170	1079.24125	-259.31967	137.13811	1143.20018	-226.99926	158.85350	1219.67114	-282.62193	206.19999	1305.35316	-373.42685	241.52670	1298.70968	-357.76729	33.38579	1232.79833	-712.68880	220.45300	1113.50524	-766.89193	205.08787	1176.51168	-799.14077	245.13985	1250.83983	-731.03338	281.56121	1319.84781	-639.82802	319.08963	1306.48806	-647.02035	-334.87541	744.06835	-472.80776	-311.91821	745.44302	-679.03583	-316.47304	764.53335	-496.76965	-299.62014	758.77045	-637.37039	
237	2.36000000	-139.05799	435.27616	-417.21614	-104.86661	362.37255	-419.28117	-299.59858	93.40910	-451.22988	-364.01833	72.78129	-498.69413	-207.54685	39.91077	-425.17717	-160.20810	53.78715	-476.49675	-104.18524	439.61099	-760.01487	-84.41850	343.55808	-756.05587	-276.72455	108.64415	-776.29392	-344.17215	76.04091	-731.97893	-193.66548	42.44571	-813.44296	-138.44732	52.52202	-763.55915	-163.08549	265.82760	-417.11629	-164.75630	400.71007	-389.79485	-233.05084	306.03174	-394.39290	-146.45335	395.41623	-796.87452	-205.41878	287.59587	-810.59738	-234.16036	662.92346	-374.86615	-171.07783	570.08531	-384.05783	-258.56805	512.21470	-429.66898	-324.57904	608.65007	-414.34299	-215.15481	517.02817	-396.08098	-208.70425	696.69388	-779.09232	-134.30591	580.57691	-771.41435	-305.71436	640.86028	-768.00589	-231.05903	522.55517	-743.72282	-225.44275	813.40662	-456.39029	-399.84325	913.68395	-547.57876	-202.77281	816.38908	-670.75438	-389.56082	911.16011	-629.15036	-127.62197	1268.77478	-552.12679	-63.22127	1260.53394	-441.43553	-44.84675	1267.60629	-644.36367	-10.05745	1202.72135	-507.10150	-9.14239	1187.93927	-549.28506	9.96778	1245.42363	-372.65847	150.49923	1123.23553	-253.89509	134.78343	1188.10616	-223.57073	149.11281	1264.42111	-282.20291	185.67882	1350.40682	-376.59368	221.42423	1347.83576	-360.82348	30.56780	1266.15679	-708.77499	224.45413	1162.69962	-769.00493	203.64687	1225.42039	-800.01081	234.71200	1301.81888	-730.42661	261.62374	1371.61170	-636.20828	300.42446	1362.23466	-643.09239	-330.70212	759.82503	-472.68230	-306.00237	762.91501	-678.69192	-312.06722	780.11341	-495.74741	-294.28197	775.74950	-636.84482	
